<svg width="2385" height="2188" xmlns="http://www.w3.org/2000/svg" xmlns:xlink="http://www.w3.org/1999/xlink" overflow="hidden"><defs><clipPath id="clip0"><rect x="611" y="135" width="2385" height="2188"/></clipPath><clipPath id="clip1"><rect x="1189" y="235" width="541" height="2018"/></clipPath><clipPath id="clip2"><rect x="1189" y="235" width="541" height="2018"/></clipPath><clipPath id="clip3"><rect x="1189" y="235" width="541" height="2018"/></clipPath></defs><g clip-path="url(#clip0)" transform="translate(-611 -135)"><g clip-path="url(#clip1)"><g clip-path="url(#clip2)"><g clip-path="url(#clip3)"><path d="M532.84 121.852 532.84 362.09 1.78437 362.09 1.78437 121.852C1.78437 55.487 120.685 1.71574 267.312 1.71574 413.94 1.71574 532.84 55.487 532.84 121.852Z" stroke="#FFFFFF" stroke-width="3.43148" stroke-miterlimit="10" fill="#6A548A" transform="matrix(1.00049 0 0 1 1189 236.929)"/><path d="M535.448 536.615 380.38 837.041 315.731 962.221 222.497 962.221 157.848 837.041 2.7795 536.615 269.131 364.629 535.448 536.615Z" stroke="#FFFFFF" stroke-width="3.43148" stroke-miterlimit="10" fill="#F08B4A" transform="matrix(1.00049 0 0 1 1189 236.929)"/><path d="M538.022 361.987 538.022 536.581" stroke="#FFFFFF" stroke-width="3.43148" stroke-miterlimit="10" fill="none" transform="matrix(1.00049 0 0 1 1189 236.929)"/><path d="M318.785 962.221 314.392 962.221 219.477 962.221" stroke="#FFFFFF" stroke-width="3.43148" stroke-miterlimit="10" fill="none" transform="matrix(1.00049 0 0 1 1189 236.929)"/><path d="M316.588 1009.68 316.588 1125.73C316.588 1127.41 315.216 1128.75 313.569 1128.75L224.522 1128.75C222.943 1128.75 221.674 1127.48 221.674 1125.9L221.674 1011.09C221.674 985.864 240.753 963.972 265.94 962.324 280.318 961.364 293.426 966.854 302.691 976.119 311.27 984.698 316.588 996.571 316.588 1009.68Z" stroke="#FFFFFF" stroke-width="3.43148" stroke-miterlimit="10" fill="#C25A81" transform="matrix(1.00049 0 0 1 1189 236.929)"/><path d="M312.951 1128.75C314.941 1128.75 316.554 1130.36 316.554 1132.35L316.554 1877.84C316.554 1903.24 296.617 1923.96 271.533 1925.23 270.744 1925.27 269.92 1925.3 269.097 1925.3 268.273 1925.3 267.45 1925.27 266.66 1925.23 241.576 1923.96 221.639 1903.24 221.639 1877.84L221.639 1132.35C221.639 1130.36 223.252 1128.75 225.242 1128.75L312.917 1128.75Z" stroke="#FFFFFF" stroke-width="3.43148" stroke-miterlimit="10" fill="#DE6A6D" transform="matrix(1.00049 0 0 1 1189 236.929)"/><path d="M263.744 365.864 1.78437 363.394 1.78437 362.09 1.71574 536.684 5.69626 534.076 267.758 361.953" stroke="#FFFFFF" stroke-width="3.43148" stroke-miterlimit="10" fill="#B48B9E" transform="matrix(1.00049 0 0 1 1189 236.929)"/><path d="M270.915 365.864 532.875 363.359 532.84 362.056 532.943 536.649 528.963 534.041 266.935 361.953" stroke="#FFFFFF" stroke-width="3.43148" stroke-miterlimit="10" fill="#B48B9E" transform="matrix(1.00049 0 0 1 1189 236.929)"/><path d="M268.822 962.221C255.645 962.221 243.669 967.54 235.022 976.119 226.409 984.698 221.056 996.571 221.056 1009.68L221.056 1128.75 173.461 1128.75C173.461 1128.75 62.9334 1018.88 89.8362 963.972 110.562 921.661 131.323 879.351 152.049 837.041L152.598 837.041 200.227 927.083C211.688 948.701 234.199 962.221 258.768 962.221L268.822 962.221Z" stroke="#FFFFFF" stroke-width="3.43148" stroke-miterlimit="10" fill="#915F93" transform="matrix(1.00049 0 0 1 1189 236.929)"/><path d="M242.434 2012.46C214.811 2009.1 212.958 1904.68 205.203 1877.53L93.9883 1211.69C91.6205 1197.55 93.9539 1183.04 100.611 1170.34L122.401 1128.75 221.022 1128.75 221.022 1877.84C221.022 1902.93 218.174 2008.55 242.4 2012.46Z" stroke="#FFFFFF" stroke-width="3.43148" stroke-miterlimit="10" fill="#915F93" transform="matrix(1.00049 0 0 1 1189 236.929)"/><path d="M317.378 1128.75 316.588 1128.75" stroke="#FFFFFF" stroke-width="3.43148" stroke-miterlimit="10" fill="none" transform="matrix(1.00049 0 0 1 1189 236.929)"/><path d="M9.09342 1189.9 9.05911 1189.9" stroke="#FFFFFF" stroke-width="3.43148" stroke-miterlimit="10" fill="none" transform="matrix(1.00049 0 0 1 1189 236.929)"/><path d="M268.822 962.221C281.999 962.221 293.975 967.54 302.622 976.119 311.235 984.698 316.588 996.571 316.588 1009.68L316.588 1128.75C316.588 1128.75 364.183 1128.75 364.183 1128.75 364.183 1128.75 474.711 1018.88 447.808 963.972 427.082 921.661 406.322 879.351 385.595 837.041L385.046 837.041C385.046 837.041 337.418 927.083 337.418 927.083 325.956 948.701 303.446 962.221 278.876 962.221L268.822 962.221Z" stroke="#FFFFFF" stroke-width="3.43148" stroke-miterlimit="10" fill="#915F93" transform="matrix(1.00049 0 0 1 1189 236.929)"/><path d="M295.794 2012.46C323.417 2009.1 325.27 1904.68 333.025 1877.53L444.205 1211.69C446.573 1197.55 444.24 1183.04 437.582 1170.34L415.793 1128.75 317.172 1128.75C317.172 1128.75 317.172 1877.84 317.172 1877.84 317.172 1902.93 320.02 2008.55 295.794 2012.46Z" stroke="#FFFFFF" stroke-width="3.43148" stroke-miterlimit="10" fill="#915F93" transform="matrix(1.00049 0 0 1 1189 236.929)"/></g></g></g><path d="M1566.5 466.5 1902.97 466.5" stroke="#BFBFBF" stroke-width="6.875" stroke-miterlimit="8" fill="none" fill-rule="evenodd"/><text fill="#333333" font-family="Arial,Arial_MSFontService,sans-serif" font-weight="400" font-size="64" transform="matrix(1 0 0 1 1963.05 451)">C<tspan font-size="64" x="46.4063" y="0">ornea</tspan><tspan font-size="64" x="227.448" y="0">(Facet)</tspan><tspan fill="#7F7F7F" font-size="64" x="0" y="77">L</tspan><tspan fill="#7F7F7F" font-size="64" x="35.5209" y="77">ense</tspan></text><path d="M1451.5 896.5 1875.73 896.5" stroke="#BFBFBF" stroke-width="6.875" stroke-miterlimit="8" fill="none" fill-rule="evenodd"/><text font-family="Arial,Arial_MSFontService,sans-serif" font-weight="400" font-size="64" transform="matrix(1 0 0 1 1963.05 927)">Crystalline Cone<tspan fill="#7F7F7F" font-size="64" x="0" y="77">L</tspan><tspan fill="#7F7F7F" font-size="64" x="35.5209" y="77">ense</tspan></text><path d="M1451.5 1238.5 1875.73 1238.5" stroke="#A6A6A6" stroke-width="6.875" stroke-miterlimit="8" fill="none" fill-rule="evenodd"/><text font-family="Arial,Arial_MSFontService,sans-serif" font-weight="400" font-size="64" transform="matrix(1 0 0 1 1975.19 1222)">R[8] Rhabdom<tspan fill="#7F7F7F" font-size="64" x="0" y="77">Consists of R8 Rhabdomeres</tspan><tspan font-size="64" x="3.84277" y="374">Retinular cells</tspan><tspan fill="#7F7F7F" font-size="64" x="3.84277" y="451">Photoreceptors</tspan><tspan font-size="64" x="-1324.77" y="1040">Proximal</tspan><tspan font-size="64" x="-1279.94" y="-1005">Distal</tspan><tspan font-size="64" x="-946.048" y="1047">(Connected to the nerve fiber)</tspan></text><path d="M778.146 271.918 778.146 2159.8 775.854 2159.8 775.854 271.918ZM763.25 276.5 777 249 790.75 276.5ZM790.75 2155.22 777 2182.72 763.25 2155.22Z" fill="#7F7F7F"/><path d="M1760.5 1611.5 1946.53 1611.5" stroke="#D9D9D9" stroke-width="6.875" stroke-miterlimit="8" fill="none" fill-rule="evenodd"/><path d="M1734.5 1081.5C1748.86 1081.5 1760.5 1082.47 1760.5 1083.67L1760.5 2185.33C1760.5 2186.53 1748.86 2187.5 1734.5 2187.5" stroke="#D9D9D9" stroke-width="6.875" stroke-miterlimit="8" fill="none" fill-rule="evenodd"/><text font-family="Arial,Arial_MSFontService,sans-serif" font-weight="400" font-size="64" transform="matrix(1 0 0 1 1979.03 1970)">R[1<tspan font-size="64" x="99.6875" y="0">-</tspan><tspan font-size="64" x="120.886" y="0">7] Rhabdom</tspan><tspan fill="#7F7F7F" font-size="64" x="0" y="77">Consists of R[1</tspan><tspan fill="#7F7F7F" font-size="64" x="434.271" y="77">-</tspan><tspan fill="#7F7F7F" font-size="64" x="455.469" y="77">7] Rhabdomeres</tspan></text><path d="M1451.5 1985.5 1875.73 1985.5" stroke="#A6A6A6" stroke-width="6.875" stroke-miterlimit="8" fill="none" fill-rule="evenodd"/></g></svg>