<?xml version="1.0" encoding="utf-8"?>
<!-- Generator: Adobe Illustrator 27.0.0, SVG Export Plug-In . SVG Version: 6.00 Build 0)  -->
<svg version="1.1" id="图层_1" xmlns="http://www.w3.org/2000/svg" xmlns:xlink="http://www.w3.org/1999/xlink" x="0px" y="0px"
	 viewBox="0 0 400 400" style="enable-background:new 0 0 400 400;" xml:space="preserve">
<style type="text/css">
	.st0{fill:#FFFFFF;}
	.st1{fill:none;stroke:#FFFFFF;stroke-width:10;stroke-miterlimit:10;}
</style>
<path class="st0" d="M194.7,77.6c12.4,2.3,5.5,16.9,7.2,25.5c11.4,15.6,58.7-15,63.8,37.1c0.5,20.4,0.2,50.9-23.9,57.2
	c-5.2,2.6-37.7,5.8-27.4-6.3c6.6-3.8,14.1-2.4,21.3-3.3c23.8-3,21.1-42.4,17.2-59.7c-9.9-20.2-83.6-11.8-103.6-7.4
	c-11.2,3.4-10.5,28.6-10.5,38.3c1.2,23.3,4.1,31.3,29.2,29.8c5.4,0.7,19.9-1.8,19.9,6.2c-0.2,1-1.3,2-2.3,2.5
	c-13.5,7-28.7-0.4-42.6-2.6c-23.8-15.5-13.9-50.5-9.4-73.7c12.3-17.1,36.8-13.9,55.4-15.7C195.2,106.4,188.9,88.2,194.7,77.6
	L194.7,77.6z"/>
<path class="st0" d="M191,154.4c-12.1-0.7-24.3,1.5-36-1.3c-6.1-3.6-3.4-7.2,1.8-9c26.4,0.1,53-0.5,79.4,0.3c2.1,0.2,3.9,1,4.5,3.2
	c4,11.5-28.7,5-35.1,6.1c-2.2-0.1-2.7,1-2.7,3c-0.7,49.6-0.8,99.2-1.2,148.7c-0.4,5.1,0.7,10.8-1.5,15.5c-1.7,2.7-5.5,2.4-7-0.3
	c-2.7-5.2-3.1-10.9-3-16.7C191.7,254,190.8,204.3,191,154.4z"/>
<circle class="st1" cx="196.3" cy="204.4" r="153.4"/>
</svg>
