<?xml version="1.0" encoding="UTF-8"?>
<svg id="_图层_1" data-name="图层 1" xmlns="http://www.w3.org/2000/svg" viewBox="0 0 348.43 348.07">
  <defs>
    <style>
      .cls-1 {
        fill: #fff;
      }

      .cls-2 {
        fill: #fbfafa;
      }

      .cls-3 {
        fill: none;
        stroke: #fff;
        stroke-miterlimit: 10;
        stroke-width: 10px;
      }
    </style>
  </defs>
  <g>
    <path class="cls-2" d="M31.27,347.81c-.92,.31-1.52,.05-2-.78-.7-1.2-1.52-2.34-2.47-3.78v4.59c-.55,.03-.95,.05-1.41,.07-.03-.37-.06-.64-.06-.91v-5.7c1.13-.41,1.77-.03,2.29,.91,.62,1.11,1.38,2.14,2.31,3.19v-4.2h1.35v6.61h0Z"/>
    <path class="cls-2" d="M6.62,347.88v-6.75c1.9,.19,3.93-.54,5.37,1.29,.8,1.01,.78,2.88,.03,3.97-1.37,1.97-3.4,1.51-5.4,1.49m1.45-1.22c2.04,.12,2.92-.58,2.89-2.21-.03-1.51-.98-2.19-2.89-2v4.21Z"/>
    <path class="cls-2" d="M5.49,347.87H0c.68-2.18,2.47-3.48,3.51-5.45H.43v-1.21H5.72c-.71,2.13-2.44,3.48-3.47,5.51,.86,0,1.63,.04,2.39-.01,.79-.05,1.14,.21,.85,1.16"/>
    <path class="cls-2" d="M33.01,347.86v-6.61h3.7v1.07h-2.22v1.52c.68,.04,1.34,.09,2.07,.13v1.07c-.72,.05-1.38,.09-2.1,.14v1.48h2.4v1.19h-3.85Z"/>
    <path class="cls-2" d="M21.39,342.56c-1.15-.3-2.46-.61-3.1,.64-.37,.73-.41,1.93-.06,2.67,.63,1.35,1.99,.93,3.17,.68,.35,.94-.01,1.32-.93,1.46-1.62,.25-3.05-.27-3.76-1.48-.73-1.24-.6-3.03,.31-4.17,.88-1.11,2.71-1.7,4-1.16,.32,.13,.44,.74,.65,1.12-.1,.08-.19,.16-.28,.24"/>
    <path class="cls-2" d="M42.83,341.24v1.07c-.59,.02-1.17,.05-1.87,.08v5.44h-1.48v-5.44h-1.85c-.05-.4-.08-.73-.13-1.15h5.33Z"/>
    <path class="cls-2" d="M13.74,341.21h1.33v6.62h-1.33v-6.62Z"/>
    <path class="cls-2" d="M24.36,347.25c-.49,.38-.8,.79-1.05,.76-.32-.05-.6-.45-.9-.7,.26-.24,.51-.64,.8-.67,.29-.04,.62,.3,1.15,.61"/>
  </g>
  <path class="cls-1" d="M188.41,31.64c12.42,2.29,5.52,16.93,7.2,25.49,11.44,15.64,58.68-14.97,63.78,37.1,.47,20.41,.22,50.89-23.85,57.21-5.19,2.63-37.75,5.83-27.36-6.31,6.61-3.83,14.15-2.38,21.34-3.25,23.85-3.03,21.08-42.39,17.24-59.7-9.92-20.18-83.62-11.75-103.57-7.41-11.18,3.36-10.51,28.56-10.47,38.29,1.2,23.3,4.11,31.33,29.22,29.81,5.36,.66,19.94-1.78,19.91,6.16-.16,.96-1.3,2-2.25,2.54-13.54,7-28.71-.39-42.62-2.56-23.82-15.5-13.88-50.54-9.42-73.73,12.25-17.06,36.78-13.89,55.39-15.71,5.89,.83-.37-17.41,5.45-27.94h0Z"/>
  <path class="cls-1" d="M184.72,108.38c-12.11-.71-24.31,1.51-35.97-1.28-6.14-3.59-3.44-7.16,1.76-8.99,26.41,.11,52.99-.49,79.41,.27,2.06,.19,3.91,1.03,4.54,3.15,3.98,11.53-28.71,5.04-35.06,6.09-2.19-.07-2.7,1.04-2.72,3.04-.69,49.58-.82,99.16-1.18,148.74-.44,5.1,.67,10.75-1.48,15.48-1.72,2.7-5.52,2.45-6.97-.32-2.74-5.25-3.14-10.91-3.02-16.67,1.38-49.86,.4-99.63,.68-149.52Z"/>
  <circle class="cls-3" cx="190.02" cy="158.41" r="153.41"/>
</svg>