<svg enable-background="new 0 0 400 400" viewBox="0 0 400 400" xmlns="http://www.w3.org/2000/svg"><g fill="#fbfafa"><path d="m37.59 393.81c-.92.31-1.52.05-2-.78-.7-1.2-1.52-2.34-2.47-3.78v4.59c-.55.03-.95.05-1.41.07-.03-.37-.06-.64-.06-.91 0-1.91 0-3.81 0-5.7 1.13-.41 1.77-.03 2.29.91.62 1.11 1.38 2.14 2.31 3.19v-4.2h1.35v6.61z"/><path d="m12.94 393.88v-6.75c1.9.19 3.93-.54 5.37 1.29.8 1.01.78 2.88.03 3.97-1.37 1.97-3.4 1.51-5.4 1.49m1.45-1.22c2.04.12 2.92-.58 2.89-2.21-.03-1.51-.98-2.19-2.89-2z"/><path d="m11.81 393.87h-5.49c.68-2.18 2.47-3.48 3.51-5.45h-3.08v-1.21h5.29c-.71 2.13-2.44 3.48-3.47 5.51.86 0 1.63.04 2.39-.01.79-.05 1.14.21.85 1.16"/><path d="m39.33 393.86v-6.61h3.7v1.07h-2.22v1.52c.68.04 1.34.09 2.07.13v1.07c-.72.05-1.38.09-2.1.14v1.48h2.4v1.19h-3.85z"/><path d="m27.71 388.56c-1.15-.3-2.46-.61-3.1.64-.37.73-.41 1.93-.06 2.67.63 1.35 1.99.93 3.17.68.35.94-.01 1.32-.93 1.46-1.62.25-3.05-.27-3.76-1.48-.73-1.24-.6-3.03.31-4.17.88-1.11 2.71-1.7 4-1.16.32.13.44.74.65 1.12-.1.08-.19.16-.28.24"/><path d="m49.15 387.24v1.07c-.59.02-1.17.05-1.87.08v5.44h-1.48v-5.44h-1.85c-.05-.4-.08-.73-.13-1.15z"/><path d="m20.06 387.21h1.33v6.62h-1.33z"/><path d="m30.68 393.25c-.49.38-.8.79-1.05.76-.32-.05-.6-.45-.9-.7.26-.24.51-.64.8-.67.29-.04.62.3 1.15.61"/></g><path d="m193.8 25.11c6.94 1.31 10.75 5.58 10.83 12.65.06 4.9-.64 9.81-.81 14.73-.11 3.01.03 6.04.27 9.04.23 2.86 1.7 4.4 4.78 5.03 11.08 2.25 22.21 2.27 33.42 1.64 10.27-.57 20.56.21 29.91 4.48 4.62 2.11 8.64 6.31 11.96 10.37 7.39 9.05 10.33 20.05 11.05 31.47 1.19 18.88-.65 37.42-6.33 55.67-4.44 14.25-14.38 21.85-27.75 26.06-12.04 3.79-24.31 4.56-36.78 2.19-3.27-.62-4.38-2.79-5.03-5.46-.62-2.54.3-4.29 2.73-5.74 6.6-3.94 13.86-3.85 21.12-4.1 3.13-.11 6.26-.28 9.37-.55 11.87-1.02 18.42-8.54 22.69-18.75 3.55-8.49 4.58-17.48 5.08-26.56.73-13.46.42-26.86-3.15-39.97-.46-1.69-1.78-3.22-2.92-4.64-7.04-8.78-17.39-9.33-27.3-10.5-27.3-3.22-54.7-3.85-82.06-1.28-11.97 1.13-23.8 3.75-35.67 5.84-4.72.83-7.23 4.02-8.92 8.47-5.69 14.96-6.74 30.48-6.04 46.23.49 10.99 2 21.81 5.74 32.24.89 2.47 2.36 4.02 4.65 5.32 9.86 5.6 20.55 5.28 31.35 5.03 6.45-.15 12.94.41 19.38.92 1.94.15 3.88 1.06 5.7 1.89 2.51 1.14 3.81 3.45 3.37 5.99-.23 1.37-1.85 2.86-3.22 3.63-7.86 4.47-16.57 4.96-25.12 3.62-12.01-1.88-23.89-4.61-35.76-7.28-2.07-.47-4.11-2.15-5.62-3.77-3.19-3.44-6.67-6.87-8.83-10.94-2.47-4.63-4.22-9.83-5.25-14.99-2.74-13.63-2.25-27.46-.4-41.12 1.58-11.59 4.23-23.04 6.64-34.51.35-1.67 1.74-3.34 3.08-4.54 11.33-10.17 25.15-14.27 39.89-15.6 12.02-1.09 24.1-1.7 36.16-2.3 2.97-.15 3.91-1.34 3.85-4.04-.11-5.26-.13-10.52-.18-15.78-.06-6.91 1.5-13.5 4.12-20.09z" fill="#010105"/><path d="m188.53 134.73c-6.03 0-11.58.03-17.14-.01-9.72-.06-19.43-.07-29.15-.29-1.71-.04-3.5-.78-5.09-1.53-3.5-1.67-6.3-5.89-4.71-8.25 1.47-2.18 4.7-3.21 7.23-4.59.61-.33 1.54-.06 2.32-.06 33.92 0 67.84-.01 101.75.02 3.13 0 6.27.14 9.38.43 2.94.27 5.59 1.47 6.49 4.5 1.15 3.87 1.3 5.93-3.2 7.57-8.94 3.26-17.97 2.64-27.17 1.73-6.53-.64-13.14-.39-19.72-.6-3.13-.1-3.85 1.48-3.88 4.35-.13 17.45-.51 34.91-.64 52.36-.39 53.38-.68 106.75-1.05 160.13-.04 5.81-.26 11.62-.61 17.42-.1 1.6-.65 3.35-1.51 4.7-2.46 3.86-7.89 3.5-9.96-.46-3.91-7.5-4.49-15.59-4.31-23.82.29-13.42.89-26.84.92-40.27.11-56.07.04-112.14.04-168.21.01-1.34.01-2.67.01-5.12z" fill="#010105"/></svg>