<svg width="2367" height="2180" xmlns="http://www.w3.org/2000/svg" xmlns:xlink="http://www.w3.org/1999/xlink" overflow="hidden"><defs><clipPath id="clip0"><rect x="1365" y="161" width="2367" height="2180"/></clipPath><clipPath id="clip1"><rect x="1916" y="214" width="541" height="2019"/></clipPath><clipPath id="clip2"><rect x="1916" y="214" width="541" height="2019"/></clipPath><clipPath id="clip3"><rect x="1916" y="214" width="541" height="2019"/></clipPath></defs><g clip-path="url(#clip0)" transform="translate(-1365 -161)"><g clip-path="url(#clip1)"><g clip-path="url(#clip2)"><g clip-path="url(#clip3)"><path d="M532.84 121.852 532.84 362.09 1.78437 362.09 1.78437 121.852C1.78437 55.4871 120.685 1.71574 267.312 1.71574 413.94 1.71574 532.84 55.4871 532.84 121.852Z" stroke="#FFFFFF" stroke-width="3.43148" stroke-miterlimit="10" fill="#6A548A" transform="matrix(1.00049 0 0 1 1916 216.929)"/><path d="M535.448 536.615 380.38 837.041 315.731 962.222 222.497 962.222 157.848 837.041 2.7795 536.615 269.131 364.629 535.448 536.615Z" stroke="#FFFFFF" stroke-width="3.43148" stroke-miterlimit="10" fill="#F08B4A" transform="matrix(1.00049 0 0 1 1916 216.929)"/><path d="M538.022 361.987 538.022 536.581" stroke="#FFFFFF" stroke-width="3.43148" stroke-miterlimit="10" fill="none" transform="matrix(1.00049 0 0 1 1916 216.929)"/><path d="M318.785 962.222 314.392 962.222 219.478 962.222" stroke="#FFFFFF" stroke-width="3.43148" stroke-miterlimit="10" fill="none" transform="matrix(1.00049 0 0 1 1916 216.929)"/><path d="M316.588 1009.68 316.588 1125.73C316.588 1127.41 315.216 1128.75 313.569 1128.75L224.522 1128.75C222.943 1128.75 221.674 1127.48 221.674 1125.9L221.674 1011.09C221.674 985.865 240.753 963.972 265.94 962.325 280.318 961.364 293.426 966.854 302.691 976.119 311.27 984.698 316.588 996.571 316.588 1009.68Z" stroke="#FFFFFF" stroke-width="3.43148" stroke-miterlimit="10" fill="#C25A81" transform="matrix(1.00049 0 0 1 1916 216.929)"/><path d="M316.588 1132.35 316.588 1189.9 221.674 1189.9 221.674 1132.35C221.674 1130.36 223.286 1128.75 225.277 1128.75L312.985 1128.75C314.976 1128.75 316.588 1130.36 316.588 1132.35Z" stroke="#FFFFFF" stroke-width="3.43148" stroke-miterlimit="10" fill="#E61D37" transform="matrix(1.00049 0 0 1 1916 216.929)"/><path d="M314.701 1387.76 314.701 1455.6 221.674 1455.6 221.674 1391.12 314.392 1391.12 314.392 1387.76 314.701 1387.76Z" stroke="#FFFFFF" stroke-width="3.43148" stroke-miterlimit="10" fill="#115387" transform="matrix(1.00049 0 0 1 1916 216.929)"/><path d="M221.674 1387.76 314.392 1387.76 314.392 1391.12 221.674 1391.12Z" stroke="#FFFFFF" stroke-width="3.43148" stroke-miterlimit="10" fill="none" transform="matrix(1.00049 0 0 1 1916 216.929)"/><path d="M314.701 1387.76 316.588 1387.76 316.588 1455.6 314.701 1455.6Z" stroke="#FFFFFF" stroke-width="3.43148" stroke-miterlimit="10" fill="none" transform="matrix(1.00049 0 0 1 1916 216.929)"/><path d="M219.478 1193.23 314.392 1193.23 314.392 1391.12 219.478 1391.12Z" stroke="#FFFFFF" stroke-width="3.43148" stroke-miterlimit="10" fill="#EB6463" transform="matrix(1.00049 0 0 1 1916 216.929)"/><path d="M316.588 1455.6 316.588 1877.84C316.588 1882.37 315.971 1886.73 314.77 1890.88 309.314 1910 292.191 1924.2 271.567 1925.23 270.778 1925.27 269.955 1925.3 269.131 1925.3 268.308 1925.3 267.484 1925.27 266.695 1925.23 241.611 1923.96 221.674 1903.24 221.674 1877.84L221.674 1455.6 316.588 1455.6Z" stroke="#FFFFFF" stroke-width="3.43148" stroke-miterlimit="10" fill="#DE6A6D" transform="matrix(1.00049 0 0 1 1916 216.929)"/><path d="M263.744 365.865 1.78437 363.394 1.78437 362.09 1.71574 536.684 5.69626 534.076 267.758 361.953" stroke="#FFFFFF" stroke-width="3.43148" stroke-miterlimit="10" fill="#B48B9E" transform="matrix(1.00049 0 0 1 1916 216.929)"/><path d="M270.915 365.865 532.875 363.36 532.84 362.056 532.943 536.649 528.963 534.041 266.935 361.953" stroke="#FFFFFF" stroke-width="3.43148" stroke-miterlimit="10" fill="#B48B9E" transform="matrix(1.00049 0 0 1 1916 216.929)"/><path d="M268.822 962.222C255.645 962.222 243.669 967.54 235.022 976.119 226.409 984.698 221.056 996.571 221.056 1009.68L221.056 1128.75 173.461 1128.75C173.461 1128.75 62.9334 1018.88 89.8362 963.972 110.665 921.49 131.494 879.008 152.323 836.527L200.227 927.118C211.688 948.736 234.199 962.256 258.768 962.256L268.822 962.256Z" stroke="#FFFFFF" stroke-width="3.43148" stroke-miterlimit="10" fill="#915F93" transform="matrix(1.00049 0 0 1 1916 216.929)"/><path d="M221.056 1125.39 221.056 1452.24 169.824 1452.24 94.0226 1208.33C91.6549 1194.19 93.9883 1179.67 100.645 1166.98L122.435 1125.39 221.056 1125.39Z" stroke="#FFFFFF" stroke-width="3.43148" stroke-miterlimit="10" fill="#5D698D" transform="matrix(1.00049 0 0 1 1916 216.929)"/><path d="M242.434 2012.46C214.811 2009.1 212.958 1904.68 205.203 1877.54L130.602 1605.93C126.45 1590.83 126.313 1574.88 130.225 1559.71L157.059 1455.6 221.022 1455.6 221.022 1877.84C221.022 1902.93 218.174 2008.55 242.4 2012.46Z" stroke="#FFFFFF" stroke-width="3.43148" stroke-miterlimit="10" fill="#8F7B92" transform="matrix(1.00049 0 0 1 1916 216.929)"/><path d="M317.378 1128.75 316.588 1128.75" stroke="#FFFFFF" stroke-width="3.43148" stroke-miterlimit="10" fill="none" transform="matrix(1.00049 0 0 1 1916 216.929)"/><path d="M9.09343 1189.9 9.05911 1189.9" stroke="#FFFFFF" stroke-width="3.43148" stroke-miterlimit="10" fill="none" transform="matrix(1.00049 0 0 1 1916 216.929)"/><path d="M221.674 1455.6 221.056 1455.6" stroke="#FFFFFF" stroke-width="3.43148" stroke-miterlimit="10" fill="none" transform="matrix(1.00049 0 0 1 1916 216.929)"/><path d="M266.935 962.222C280.112 962.222 292.088 967.54 300.735 976.119 309.348 984.698 314.701 996.571 314.701 1009.68L314.701 1128.75C314.701 1128.75 362.296 1128.75 362.296 1128.75 362.296 1128.75 472.824 1018.88 445.921 963.972 425.092 921.49 404.263 879.008 383.434 836.527L335.53 927.118C324.069 948.736 301.559 962.256 276.989 962.256L266.935 962.256Z" stroke="#FFFFFF" stroke-width="3.43148" stroke-miterlimit="10" fill="#915F93" transform="matrix(1.00049 0 0 1 1916 216.929)"/><path d="M441.735 1211.69 387.002 1387.76 365.933 1455.6 314.701 1455.6 314.701 1128.75 413.322 1128.75 435.112 1170.34C441.769 1183.04 444.102 1197.55 441.735 1211.69Z" stroke="#FFFFFF" stroke-width="3.43148" stroke-miterlimit="10" fill="#5D698D" transform="matrix(1.00049 0 0 1 1916 216.929)"/><path d="M293.323 2012.46C320.946 2009.1 322.799 1904.68 330.555 1877.54L405.155 1605.93C409.307 1590.83 409.444 1574.88 405.532 1559.71L378.698 1455.6 314.735 1455.6C314.735 1455.6 314.735 1877.84 314.735 1877.84 314.735 1902.93 317.584 2008.55 293.357 2012.46Z" stroke="#FFFFFF" stroke-width="3.43148" stroke-miterlimit="10" fill="#8F7B92" transform="matrix(1.00049 0 0 1 1916 216.929)"/></g></g></g><path d="M2302.5 453.5 2638.97 453.5" stroke="#BFBFBF" stroke-width="6.875" stroke-miterlimit="8" fill="none" fill-rule="evenodd"/><text fill="#333333" font-family="Arial,Arial_MSFontService,sans-serif" font-weight="400" font-size="64" transform="matrix(1 0 0 1 2698.98 438)">C<tspan font-size="64" x="46.4063" y="0">ornea</tspan><tspan font-size="64" x="227.448" y="0">(Facet)</tspan><tspan fill="#7F7F7F" font-size="64" x="0" y="77">L</tspan><tspan fill="#7F7F7F" font-size="64" x="35.5208" y="77">ense</tspan></text><path d="M2187.5 883.5 2611.73 883.5" stroke="#BFBFBF" stroke-width="6.875" stroke-miterlimit="8" fill="none" fill-rule="evenodd"/><text font-family="Arial,Arial_MSFontService,sans-serif" font-weight="400" font-size="64" transform="matrix(1 0 0 1 2698.98 914)">Crystalline Cone<tspan fill="#7F7F7F" font-size="64" x="0" y="77">L</tspan><tspan fill="#7F7F7F" font-size="64" x="35.5208" y="77">ense</tspan></text><path d="M2187.5 1225.5 2611.73 1225.5" stroke="#A6A6A6" stroke-width="6.875" stroke-miterlimit="8" fill="none" fill-rule="evenodd"/><text font-family="Arial,Arial_MSFontService,sans-serif" font-weight="400" font-size="64" transform="matrix(1 0 0 1 2711.11 1210)">R[8] Rhabdom<tspan fill="#7F7F7F" font-size="64" x="0" y="77">Consists of R8 Rhabdomeres</tspan><tspan font-size="64" x="25.7817" y="501">Retinular cells</tspan><tspan fill="#7F7F7F" font-size="64" x="25.7817" y="578">Photoreceptors</tspan></text><path d="M2496.5 1783.5 2682.53 1783.5" stroke="#D9D9D9" stroke-width="6.875" stroke-miterlimit="8" fill="none" fill-rule="evenodd"/><path d="M2470.5 1068.5C2484.86 1068.5 2496.5 1069.47 2496.5 1070.67L2496.5 2172.33C2496.5 2173.53 2484.86 2174.5 2470.5 2174.5" stroke="#D9D9D9" stroke-width="6.875" stroke-miterlimit="8" fill="none" fill-rule="evenodd"/><text font-family="Arial,Arial_MSFontService,sans-serif" font-weight="400" font-size="64" transform="matrix(1 0 0 1 2714.96 1957)">R[1<tspan font-size="64" x="99.6875" y="0">-</tspan><tspan font-size="64" x="120.885" y="0">7] Rhabdom</tspan><tspan fill="#7F7F7F" font-size="64" x="0" y="77">Consists of R[1</tspan><tspan fill="#7F7F7F" font-size="64" x="434.271" y="77">-</tspan><tspan fill="#7F7F7F" font-size="64" x="455.469" y="77">7] Rhabdomeres</tspan></text><path d="M2187.5 1972.5 2611.73 1972.5" stroke="#A6A6A6" stroke-width="6.875" stroke-miterlimit="8" fill="none" fill-rule="evenodd"/><path d="M2187.5 1487.5 2611.73 1487.5" stroke="#A6A6A6" stroke-width="6.875" stroke-miterlimit="8" fill="none" fill-rule="evenodd"/><text font-family="Arial,Arial_MSFontService,sans-serif" font-weight="400" font-size="64" transform="matrix(1 0 0 1 2706.97 1466)">R[8] Rhabdom<tspan fill="#7F7F7F" font-size="64" x="0" y="77">Consists of R8 Rhabdomeres</tspan><tspan font-size="64" x="-1302.48" y="821">Proximal</tspan><tspan font-size="64" x="-1257.64" y="-1223">Distal</tspan></text><path d="M1532.15 297.918 1532.15 2185.8 1529.85 2185.8 1529.85 297.918ZM1517.25 302.5 1531 275 1544.75 302.5ZM1544.75 2181.22 1531 2208.72 1517.25 2181.22Z" fill="#7F7F7F"/><text font-family="Arial,Arial_MSFontService,sans-serif" font-weight="400" font-size="64" transform="matrix(1 0 0 1 1872.13 2282)">(Connected to the nerve fiber)</text><path d="M0 0 330 0.000360892" stroke="#BFBFBF" stroke-width="6.875" stroke-miterlimit="8" fill="none" fill-rule="evenodd" transform="matrix(-1 0 0 1 2169.5 1382.5)"/><path d="M0 0 330 0.000360892" stroke="#BFBFBF" stroke-width="6.875" stroke-miterlimit="8" fill="none" fill-rule="evenodd" transform="matrix(-1 0 0 1 2177.5 1632.5)"/><text font-family="Arial,Arial_MSFontService,sans-serif" font-weight="400" font-size="64" transform="matrix(1 0 0 1 1542.13 1403)">F[1] Filter<tspan font-size="64" x="0" y="252">F[2] Filter</tspan></text></g></svg>