<svg width="2190" height="2181" xmlns="http://www.w3.org/2000/svg" xmlns:xlink="http://www.w3.org/1999/xlink" overflow="hidden"><defs><clipPath id="clip0"><rect x="1542" y="156" width="2190" height="2181"/></clipPath><clipPath id="clip1"><rect x="1930" y="228" width="540" height="2019"/></clipPath><clipPath id="clip2"><rect x="1930" y="228" width="540" height="2019"/></clipPath><clipPath id="clip3"><rect x="1930" y="228" width="540" height="2019"/></clipPath></defs><g clip-path="url(#clip0)" transform="translate(-1542 -156)"><g clip-path="url(#clip1)"><g clip-path="url(#clip2)"><g clip-path="url(#clip3)"><path d="M532.576 121.792 532.576 361.91 1.78349 361.91 1.78349 121.792C1.78349 55.4596 120.625 1.71489 267.18 1.71489 413.734 1.71489 532.576 55.4596 532.576 121.792Z" stroke="#FFFFFF" stroke-width="3.42978" stroke-miterlimit="10" fill="#6A548A" transform="matrix(1.00098 0 0 1 1930 230.928)"/><path d="M535.183 536.349 380.191 836.626 315.574 961.745 222.387 961.745 157.77 836.626 2.77812 536.349 268.998 364.449 535.183 536.349Z" stroke="#FFFFFF" stroke-width="3.42978" stroke-miterlimit="10" fill="#F08B4A" transform="matrix(1.00098 0 0 1 1930 230.928)"/><path d="M537.755 361.808 537.755 536.315" stroke="#FFFFFF" stroke-width="3.42978" stroke-miterlimit="10" fill="none" transform="matrix(1.00098 0 0 1 1930 230.928)"/><path d="M318.627 961.745 314.237 961.745 219.369 961.745" stroke="#FFFFFF" stroke-width="3.42978" stroke-miterlimit="10" fill="none" transform="matrix(1.00098 0 0 1 1930 230.928)"/><path d="M316.432 1009.18 316.432 1125.17C316.432 1126.85 315.06 1128.19 313.413 1128.19L224.411 1128.19C222.833 1128.19 221.564 1126.92 221.564 1125.35L221.564 1010.58C221.564 985.376 240.633 963.494 265.808 961.848 280.179 960.887 293.281 966.375 302.541 975.635 311.115 984.21 316.432 996.077 316.432 1009.18Z" stroke="#FFFFFF" stroke-width="3.42978" stroke-miterlimit="10" fill="#C25A81" transform="matrix(1.00098 0 0 1 1930 230.928)"/><path d="M316.432 1131.79 316.432 1454.88 221.564 1454.88 221.564 1131.79C221.564 1129.8 223.176 1128.19 225.165 1128.19L312.83 1128.19C314.82 1128.19 316.432 1129.8 316.432 1131.79Z" stroke="#FFFFFF" stroke-width="3.42978" stroke-miterlimit="10" fill="#EB6463" transform="matrix(1.00098 0 0 1 1930 230.928)"/><path d="M316.432 1454.88 316.432 1876.91C316.432 1902.29 296.505 1923.01 271.433 1924.28 270.644 1924.31 269.821 1924.35 268.998 1924.35 268.175 1924.35 267.351 1924.31 266.563 1924.28 241.491 1923.01 221.564 1902.29 221.564 1876.91L221.564 1454.88 316.432 1454.88Z" stroke="#FFFFFF" stroke-width="3.42978" stroke-miterlimit="10" fill="#DE6A6D" transform="matrix(1.00098 0 0 1 1930 230.928)"/><path d="M263.613 365.683 1.78349 363.214 1.78349 361.91 1.71489 536.418 5.69344 533.811 267.626 361.773" stroke="#FFFFFF" stroke-width="3.42978" stroke-miterlimit="10" fill="#B48B9E" transform="matrix(1.00098 0 0 1 1930 230.928)"/><path d="M270.781 365.683 532.611 363.179 532.576 361.876 532.679 536.383 528.701 533.777 266.803 361.773" stroke="#FFFFFF" stroke-width="3.42978" stroke-miterlimit="10" fill="#B48B9E" transform="matrix(1.00098 0 0 1 1930 230.928)"/><path d="M268.689 961.745C255.519 961.745 243.549 967.061 234.906 975.635 226.297 984.21 220.946 996.077 220.946 1009.18L220.946 1128.19 173.375 1128.19C173.375 1128.19 62.9022 1018.37 89.7917 963.494 110.61 921.033 131.429 878.573 152.248 836.112L200.128 926.658C211.583 948.266 234.083 961.779 258.64 961.779L268.689 961.779Z" stroke="#FFFFFF" stroke-width="3.42978" stroke-miterlimit="10" fill="#915F93" transform="matrix(1.00098 0 0 1 1930 230.928)"/><path d="M220.946 1128.19 220.946 1454.88 169.74 1454.88 93.976 1211.09C91.6094 1196.96 93.9417 1182.45 100.595 1169.76L122.375 1128.19 220.946 1128.19Z" stroke="#FFFFFF" stroke-width="3.42978" stroke-miterlimit="10" fill="#5D698D" transform="matrix(1.00098 0 0 1 1930 230.928)"/><path d="M242.314 2011.46C214.704 2008.1 212.852 1903.73 205.101 1876.6L130.537 1605.14C126.387 1590.05 126.25 1574.1 130.16 1558.94L156.981 1454.88 220.912 1454.88 220.912 1876.91C220.912 1901.98 218.065 2007.55 242.28 2011.46Z" stroke="#FFFFFF" stroke-width="3.42978" stroke-miterlimit="10" fill="#8F7B92" transform="matrix(1.00098 0 0 1 1930 230.928)"/><path d="M317.22 1128.19 316.432 1128.19" stroke="#FFFFFF" stroke-width="3.42978" stroke-miterlimit="10" fill="none" transform="matrix(1.00098 0 0 1 1930 230.928)"/><path d="M9.08892 1189.31 9.05462 1189.31" stroke="#FFFFFF" stroke-width="3.42978" stroke-miterlimit="10" fill="none" transform="matrix(1.00098 0 0 1 1930 230.928)"/><path d="M221.564 1454.88 220.946 1454.88" stroke="#FFFFFF" stroke-width="3.42978" stroke-miterlimit="10" fill="none" transform="matrix(1.00098 0 0 1 1930 230.928)"/><path d="M266.803 961.745C279.973 961.745 291.943 967.061 300.586 975.635 309.195 984.21 314.545 996.077 314.545 1009.18L314.545 1128.19C314.545 1128.19 362.116 1128.19 362.116 1128.19 362.116 1128.19 472.589 1018.37 445.7 963.494 424.881 921.033 404.062 878.573 383.244 836.112L335.364 926.658C323.909 948.266 301.409 961.779 276.852 961.779L266.803 961.779Z" stroke="#FFFFFF" stroke-width="3.42978" stroke-miterlimit="10" fill="#915F93" transform="matrix(1.00098 0 0 1 1930 230.928)"/><path d="M314.545 1128.19 314.545 1454.88C314.545 1454.88 365.752 1454.88 365.752 1454.88L441.516 1211.09C443.882 1196.96 441.55 1182.45 434.896 1169.76L413.117 1128.19 314.545 1128.19Z" stroke="#FFFFFF" stroke-width="3.42978" stroke-miterlimit="10" fill="#5D698D" transform="matrix(1.00098 0 0 1 1930 230.928)"/><path d="M293.178 2011.46C320.787 2008.1 322.639 1903.73 330.391 1876.6L404.954 1605.14C409.104 1590.05 409.241 1574.1 405.331 1558.94L378.511 1454.88 314.579 1454.88C314.579 1454.88 314.579 1876.91 314.579 1876.91 314.579 1901.98 317.426 2007.55 293.212 2011.46Z" stroke="#FFFFFF" stroke-width="3.42978" stroke-miterlimit="10" fill="#8F7B92" transform="matrix(1.00098 0 0 1 1930 230.928)"/></g></g></g><path d="M2302.5 453.5 2638.97 453.5" stroke="#BFBFBF" stroke-width="6.875" stroke-miterlimit="8" fill="none" fill-rule="evenodd"/><text fill="#333333" font-family="Arial,Arial_MSFontService,sans-serif" font-weight="400" font-size="64" transform="matrix(1 0 0 1 2698.98 438)">C<tspan font-size="64" x="46.4063" y="0">ornea</tspan><tspan font-size="64" x="227.448" y="0">(Facet)</tspan><tspan fill="#7F7F7F" font-size="64" x="0" y="77">L</tspan><tspan fill="#7F7F7F" font-size="64" x="35.5208" y="77">ense</tspan></text><path d="M2187.5 883.5 2611.73 883.5" stroke="#BFBFBF" stroke-width="6.875" stroke-miterlimit="8" fill="none" fill-rule="evenodd"/><text font-family="Arial,Arial_MSFontService,sans-serif" font-weight="400" font-size="64" transform="matrix(1 0 0 1 2698.98 914)">Crystalline Cone<tspan fill="#7F7F7F" font-size="64" x="0" y="77">L</tspan><tspan fill="#7F7F7F" font-size="64" x="35.5208" y="77">ense</tspan></text><path d="M2187.5 1225.5 2611.73 1225.5" stroke="#A6A6A6" stroke-width="6.875" stroke-miterlimit="8" fill="none" fill-rule="evenodd"/><text font-family="Arial,Arial_MSFontService,sans-serif" font-weight="400" font-size="64" transform="matrix(1 0 0 1 2711.11 1210)">R[8] Rhabdom<tspan fill="#7F7F7F" font-size="64" x="0" y="77">Consists of R8 Rhabdomeres</tspan><tspan font-size="64" x="25.7817" y="501">Retinular cells</tspan><tspan fill="#7F7F7F" font-size="64" x="25.7817" y="578">Photoreceptors</tspan></text><path d="M2496.5 1783.5 2682.53 1783.5" stroke="#D9D9D9" stroke-width="6.875" stroke-miterlimit="8" fill="none" fill-rule="evenodd"/><path d="M2470.5 1068.5C2484.86 1068.5 2496.5 1069.47 2496.5 1070.67L2496.5 2172.33C2496.5 2173.53 2484.86 2174.5 2470.5 2174.5" stroke="#D9D9D9" stroke-width="6.875" stroke-miterlimit="8" fill="none" fill-rule="evenodd"/><text font-family="Arial,Arial_MSFontService,sans-serif" font-weight="400" font-size="64" transform="matrix(1 0 0 1 2714.96 1957)">R[1<tspan font-size="64" x="99.6875" y="0">-</tspan><tspan font-size="64" x="120.885" y="0">7] Rhabdom</tspan><tspan fill="#7F7F7F" font-size="64" x="0" y="77">Consists of R[1</tspan><tspan fill="#7F7F7F" font-size="64" x="434.271" y="77">-</tspan><tspan fill="#7F7F7F" font-size="64" x="455.469" y="77">7] Rhabdomeres</tspan></text><path d="M2187.5 1972.5 2611.73 1972.5" stroke="#A6A6A6" stroke-width="6.875" stroke-miterlimit="8" fill="none" fill-rule="evenodd"/><path d="M2187.5 1487.5 2611.73 1487.5" stroke="#A6A6A6" stroke-width="6.875" stroke-miterlimit="8" fill="none" fill-rule="evenodd"/><text font-family="Arial,Arial_MSFontService,sans-serif" font-weight="400" font-size="64" transform="matrix(1 0 0 1 2706.97 1466)">R[8] Rhabdom<tspan fill="#7F7F7F" font-size="64" x="0" y="77">Consists of R8 Rhabdomeres</tspan><tspan font-size="64" x="-1125.91" y="817">Proximal</tspan><tspan font-size="64" x="-1081.07" y="-1228">Distal</tspan></text><path d="M1708.15 293.918 1708.15 2181.8 1705.85 2181.8 1705.85 293.918ZM1693.25 298.5 1707 271 1720.75 298.5ZM1720.75 2177.22 1707 2204.72 1693.25 2177.22Z" fill="#7F7F7F"/><text font-family="Arial,Arial_MSFontService,sans-serif" font-weight="400" font-size="64" transform="matrix(1 0 0 1 1872.13 2282)">(Connected to the nerve fiber)</text></g></svg>